<?xml version="1.0" encoding="utf-8"?>
<!-- Generator: Adobe Illustrator 19.2.1, SVG Export Plug-In . SVG Version: 6.00 Build 0)  -->
<svg version="1.1" id="Layer_1" xmlns="http://www.w3.org/2000/svg" xmlns:xlink="http://www.w3.org/1999/xlink" x="0px" y="0px"
	 viewBox="0 0 426 426" style="enable-background:new 0 0 426 426;" xml:space="preserve">
<style type="text/css">
	.st0{fill:url(#SVGID_1_);}
	.st1{fill:url(#SVGID_2_);}
	.st2{fill:url(#SVGID_3_);}
	.st3{fill:url(#SVGID_4_);}
	.st4{fill:#717172;}
	.st5{fill:#F28D00;}
	.st6{fill:url(#SVGID_5_);}
	.st7{fill:url(#SVGID_6_);}
	.st8{fill:#292929;}
	.st9{fill:url(#SVGID_7_);}
	.st10{fill:none;stroke:#292929;stroke-width:1.2987;stroke-miterlimit:10;}
	.st11{fill:url(#SVGID_8_);}
	.st12{fill:none;stroke:#808080;stroke-width:0.6494;stroke-miterlimit:10;}
	.st13{fill:#8D9091;}
	.st14{fill:#626262;}
	.st15{fill:#8A8A8A;}
</style>
<g>
	<linearGradient id="SVGID_1_" gradientUnits="userSpaceOnUse" x1="152.9339" y1="119.1934" x2="273.0661" y2="119.1934">
		<stop  offset="0" style="stop-color:#8A8A8A"/>
		<stop  offset="0.3654" style="stop-color:#979797"/>
		<stop  offset="1" style="stop-color:#B8B8B8"/>
	</linearGradient>
	<path class="st0" d="M213,114.1h-60.1l5.8,4.2h5.1l5.9,6c4.5,0,15.9,0,43.2,0c40.7,0,46,0,46,0l14.1-10.2H213z"/>
	<linearGradient id="SVGID_2_" gradientUnits="userSpaceOnUse" x1="206.9122" y1="37.5901" x2="209.185" y2="37.5901">
		<stop  offset="0" style="stop-color:#FFFFFF"/>
		<stop  offset="0.5016" style="stop-color:#D4D4D4"/>
		<stop  offset="0.6924" style="stop-color:#E1E1E1"/>
		<stop  offset="1" style="stop-color:#FFFFFF"/>
	</linearGradient>
	<rect x="206.9" y="26.9" class="st1" width="2.3" height="21.4"/>
	<linearGradient id="SVGID_3_" gradientUnits="userSpaceOnUse" x1="218.5196" y1="2.4839" x2="220.7924" y2="2.4839">
		<stop  offset="0" style="stop-color:#1F1F1F"/>
		<stop  offset="0.5016" style="stop-color:#000000"/>
		<stop  offset="0.7732" style="stop-color:#0D0D0D"/>
		<stop  offset="1" style="stop-color:#1C1C1C"/>
	</linearGradient>
	<rect x="218.5" y="0.3" class="st2" width="2.3" height="4.5"/>
	<linearGradient id="SVGID_4_" gradientUnits="userSpaceOnUse" x1="218.5196" y1="26.5103" x2="220.7924" y2="26.5103">
		<stop  offset="0" style="stop-color:#FFFFFF"/>
		<stop  offset="0.5016" style="stop-color:#D4D4D4"/>
		<stop  offset="0.6924" style="stop-color:#E1E1E1"/>
		<stop  offset="1" style="stop-color:#FFFFFF"/>
	</linearGradient>
	<rect x="218.5" y="4.7" class="st3" width="2.3" height="43.6"/>
	<rect x="152.9" y="108.9" class="st4" width="60.1" height="5.2"/>
	<path class="st5" d="M198,56.7h-24.4l0,0c-1.3,1.2-2.6,2.5-3.7,3.9h24.1L198,56.7z"/>
	
		<rect x="213" y="108.9" transform="matrix(-1 -4.486468e-11 4.486468e-11 -1 486.0661 222.9644)" class="st4" width="60.1" height="5.2"/>
	<path class="st5" d="M228,56.7h24.4l0,0c1.3,1.2,2.6,2.5,3.7,3.9h-24.1L228,56.7z"/>
	<g>
		<radialGradient id="SVGID_5_" cx="193.952" cy="42.9744" r="93.1807" gradientUnits="userSpaceOnUse">
			<stop  offset="0" style="stop-color:#C7C7C7"/>
			<stop  offset="0.3159" style="stop-color:#D5D5D5"/>
			<stop  offset="0.9082" style="stop-color:#F9F9F9"/>
			<stop  offset="1" style="stop-color:#FFFFFF"/>
		</radialGradient>
		<path class="st6" d="M256.2,60.5h-24.1l-4.1-3.9h24.4l0,0c-1.3-1.2-2.6-2.3-4.1-3.4H213h-35.4c-1.4,1.1-2.8,2.2-4.1,3.4l0,0H198
			l-4.1,3.9h-24.1c-17.1,19.6-16.9,48.3-16.9,48.3H213h60.1C273.1,108.9,273.3,80.2,256.2,60.5z"/>
		<linearGradient id="SVGID_6_" gradientUnits="userSpaceOnUse" x1="191.0247" y1="44.3814" x2="234.9753" y2="44.3814">
			<stop  offset="0" style="stop-color:#FFFFFF"/>
			<stop  offset="0.5016" style="stop-color:#D4D4D4"/>
			<stop  offset="0.6924" style="stop-color:#E1E1E1"/>
			<stop  offset="1" style="stop-color:#FFFFFF"/>
		</linearGradient>
		<path class="st7" d="M235,46.1c-6.2-2.2-13.5-3.5-22-3.5s-15.7,1.3-22,3.5h22H235z"/>
	</g>
	<polygon class="st5" points="191.5,98.9 184.2,98.9 184.2,108.9 191.5,108.9 	"/>
	<rect x="155.4" y="98.9" class="st5" width="2.5" height="10"/>
	<rect x="161.1" y="98.9" class="st5" width="14.4" height="10"/>
	<rect x="259.7" y="97.1" class="st5" width="8.6" height="11.8"/>
	<circle class="st8" cx="213" cy="70.6" r="15"/>
	<linearGradient id="SVGID_7_" gradientUnits="userSpaceOnUse" x1="213" y1="83.1992" x2="213" y2="56.9207">
		<stop  offset="0" style="stop-color:#000000"/>
		<stop  offset="0.6838" style="stop-color:#424242"/>
		<stop  offset="0.7495" style="stop-color:#505050"/>
		<stop  offset="0.8722" style="stop-color:#737373"/>
		<stop  offset="1" style="stop-color:#9E9E9E"/>
	</linearGradient>
	<circle class="st9" cx="213" cy="70.1" r="13.1"/>
	
		<ellipse transform="matrix(0.9766 -0.2152 0.2152 0.9766 -13.2609 54.6938)" class="st10" cx="244.5" cy="88.2" rx="8.5" ry="10.3"/>
	<linearGradient id="SVGID_8_" gradientUnits="userSpaceOnUse" x1="245.3439" y1="90.2176" x2="245.3439" y2="78.3825">
		<stop  offset="0" style="stop-color:#000000"/>
		<stop  offset="0.6838" style="stop-color:#424242"/>
		<stop  offset="0.7495" style="stop-color:#505050"/>
		<stop  offset="0.8722" style="stop-color:#737373"/>
		<stop  offset="1" style="stop-color:#9E9E9E"/>
	</linearGradient>
	<path class="st11" d="M251.1,86.3c0.8,3.8-1,7.5-4.2,8.2c-3.2,0.7-6.4-1.8-7.2-5.7c-0.8-3.8,1-7.5,4.2-8.2
		C247,79.9,250.2,82.4,251.1,86.3z"/>
	<path class="st12" d="M191.7,108.9c0,0-0.1-8.4-0.1-31.8S213,54.7,213,54.7"/>
	<path class="st12" d="M234.3,74.1C232.5,53.8,213,54.7,213,54.7"/>
	<path class="st12" d="M221,108.9V89.6c0,0,11.9-2.7,11.9-15.7H243c0,0,16.5,0.1,16.5,17.2s0,17.7,0,17.7"/>
	<polyline class="st12" points="221,92.5 176.5,92.5 176.5,85.6 191.5,85.6 	"/>
	<circle class="st12" cx="180" cy="89.1" r="2"/>
	<circle class="st12" cx="212.7" cy="100.6" r="5.5"/>
	<circle class="st12" cx="212.7" cy="100.6" r="3.5"/>
	<rect x="250.8" y="104.1" class="st5" width="3.7" height="4.7"/>
	<g>
		<polygon class="st13" points="195.9,46.1 185.5,53.3 197.2,53.3 203,46.1 		"/>
		<polygon class="st13" points="222.2,46.1 228.1,53.3 239.8,53.3 229.3,46.1 		"/>
		<path class="st13" d="M191,46.1c-5.1,1.8-9.6,4.3-13.4,7.1h6.7l10.5-7.1H191z"/>
		<polygon class="st13" points="213.9,46.1 213.9,53.3 213.2,53.3 213.2,46.1 213,46.1 203.9,46.1 198,53.3 213,53.3 227.3,53.3 
			221.4,46.1 		"/>
		<path class="st13" d="M248.4,53.3c-3.8-2.9-8.3-5.3-13.4-7.1h-4.5l10.5,7.1H248.4z"/>
		<rect x="213.2" y="46.1" class="st14" width="0.6" height="0"/>
		<rect x="213.2" y="46.1" class="st14" width="0.6" height="7.1"/>
		<polygon class="st14" points="203,46.1 197.2,53.3 198,53.3 203.9,46.1 		"/>
		<polygon class="st14" points="194.8,46.1 184.3,53.3 185.5,53.3 195.9,46.1 		"/>
		<polygon class="st14" points="221.4,46.1 227.3,53.3 228.1,53.3 222.2,46.1 		"/>
		<polygon class="st14" points="230.5,46.1 229.3,46.1 239.8,53.3 241,53.3 		"/>
	</g>
	<polyline class="st15" points="207.2,124.3 207.2,118.3 201,118.3 202,124.3 207.2,124.3 	"/>
	<polyline class="st15" points="200.6,124.3 199.4,118.3 193.2,118.3 195.4,124.3 200.6,124.3 	"/>
	<polyline class="st15" points="190.3,124.3 187.7,118.3 182.5,118.3 186.2,124.3 190.9,124.3 	"/>
	<polyline class="st15" points="182.6,124.3 178.1,118.3 170.8,118.3 176,124.3 	"/>
	<path class="st15" d="M158.8,118.3l8.2,6c0,0,0.6,0,2.8,0l-5.9-6H158.8z"/>
	<polygon class="st15" points="213,118.3 208.9,118.3 208.9,124.3 213,124.3 217.1,124.3 217.1,118.3 	"/>
	<polyline class="st15" points="218.8,124.3 218.8,118.3 225,118.3 224,124.3 218.8,124.3 	"/>
	<polyline class="st15" points="225.4,124.3 226.6,118.3 232.8,118.3 230.6,124.3 225.4,124.3 	"/>
	<polyline class="st15" points="235.7,124.3 238.3,118.3 243.5,118.3 239.8,124.3 235.1,124.3 	"/>
	<polyline class="st15" points="243.4,124.3 247.9,118.3 255.2,118.3 250,124.3 	"/>
	<path class="st15" d="M267.2,118.3l-8.2,6c0,0-0.6,0-2.8,0l5.9-6H267.2z"/>
</g>
</svg>
