<?xml version="1.0" encoding="utf-8"?>
<!-- Generator: Adobe Illustrator 19.2.1, SVG Export Plug-In . SVG Version: 6.00 Build 0)  -->
<svg version="1.1" id="Layer_1" xmlns="http://www.w3.org/2000/svg" xmlns:xlink="http://www.w3.org/1999/xlink" x="0px" y="0px"
	 viewBox="0 0 200 200" style="enable-background:new 0 0 200 200;" xml:space="preserve">
<style type="text/css">
	.st0{clip-path:url(#SVGID_2_);fill:url(#SVGID_3_);}
	.st1{clip-path:url(#SVGID_2_);}
	.st2{fill:#D98C00;stroke:#4D4D4D;stroke-width:0.5215;stroke-miterlimit:10;}
	.st3{fill:none;stroke:#4D4D4D;stroke-width:0.5215;stroke-miterlimit:10;}
	.st4{fill:#D98000;stroke:#4D4D4D;stroke-width:0.5215;stroke-miterlimit:10;}
	.st5{fill:none;stroke:#4D4D4D;stroke-width:1.043;stroke-miterlimit:10;}
	.st6{fill:#8A8B8A;}
	.st7{fill:none;stroke:#D98000;stroke-width:0.5215;stroke-miterlimit:10;}
</style>
<g>
	<g>
		<defs>
			<circle id="SVGID_1_" cx="100" cy="100" r="100"/>
		</defs>
		<clipPath id="SVGID_2_">
			<use xlink:href="#SVGID_1_"  style="overflow:visible;"/>
		</clipPath>
		
			<radialGradient id="SVGID_3_" cx="-6951.4111" cy="-5431.2827" r="104.3023" gradientTransform="matrix(-4.489700e-11 -1 1 -4.489700e-11 5531.2827 -6851.4111)" gradientUnits="userSpaceOnUse">
			<stop  offset="0" style="stop-color:#FFFFFF"/>
			<stop  offset="0.2905" style="stop-color:#FCFCFC"/>
			<stop  offset="0.5035" style="stop-color:#F3F3F3"/>
			<stop  offset="0.6917" style="stop-color:#E3E3E3"/>
			<stop  offset="0.8646" style="stop-color:#CCCCCC"/>
			<stop  offset="1" style="stop-color:#B5B5B5"/>
		</radialGradient>
		<circle class="st0" cx="100" cy="100" r="104.3"/>
		<g class="st1">
			<path class="st2" d="M77.7,138.4l3.4,8.6c0.4,1-0.3,2.3-1.6,2.8l-16.8,4.5c-1.3,0.5-2.7,0.1-3.1-0.9l-1.9-4.9
				c-0.4-1,0.3-2.3,1.6-2.8l15.3-8.2C75.9,137,77.3,137.4,77.7,138.4z"/>
			
				<ellipse transform="matrix(0.9297 -0.3684 0.3684 0.9297 -50.4837 33.8126)" class="st3" cx="63.3" cy="149.1" rx="2.6" ry="2.6"/>
			<path class="st2" d="M9.7,116.1l8.6-3.4c1-0.4,2.3,0.3,2.8,1.6l4.5,16.8c0.5,1.3,0.1,2.7-0.9,3.1l-4.9,1.9
				c-1,0.4-2.3-0.3-2.8-1.6l-8.2-15.3C8.3,117.9,8.7,116.5,9.7,116.1z"/>
			
				<ellipse transform="matrix(0.9297 -0.3684 0.3684 0.9297 -46.6702 16.712)" class="st3" cx="20.4" cy="130.6" rx="2.6" ry="2.6"/>
			<path class="st2" d="M-12.5,184.1l-3.4-8.6c-0.4-1,0.3-2.3,1.6-2.8l16.8-4.5c1.3-0.5,2.7-0.1,3.1,0.9l1.9,4.9
				c0.4,1-0.3,2.3-1.6,2.8l-15.3,8.2C-10.7,185.6-12.1,185.2-12.5,184.1z"/>
			
				<ellipse transform="matrix(0.9297 -0.3684 0.3684 0.9297 -63.7708 12.8986)" class="st3" cx="1.9" cy="173.4" rx="2.6" ry="2.6"/>
			<path class="st2" d="M55.5,206.4l-8.6,3.4c-1,0.4-2.3-0.3-2.8-1.6l-4.5-16.8c-0.5-1.3-0.1-2.7,0.9-3.1l4.9-1.9
				c1-0.4,2.3,0.3,2.8,1.6l8.2,15.3C56.9,204.6,56.5,206,55.5,206.4z"/>
			<ellipse transform="matrix(0.9297 -0.3684 0.3684 0.9297 -67.5842 29.9992)" class="st3" cx="44.8" cy="192" rx="2.6" ry="2.6"/>
			<g>
				<path class="st4" d="M86.5,139.9c11.8,29.8-2.8,63.5-32.5,75.3c-8.2,3.3-16.7,4.5-25,4l-0.3,4.9l0.3-4.9
					c-21.7-1.4-41.7-15-50.3-36.5c-2.8-7.1-4.1-14.3-4.1-21.5l-5,0c0,7.8,1.4,15.7,4.4,23.3c12.8,32.3,49.4,48.1,81.7,35.3
					c32.3-12.8,48.1-49.4,35.3-81.7c-3.9-9.8-10-18.1-17.5-24.6l-3.1,3.9C77.4,123.3,82.9,130.9,86.5,139.9z"/>
				<path class="st4" d="M61.4,111l2.5-4.3c-12.6-7.2-27.6-10-42.5-7.3l0.9,4.9C36,101.7,49.8,104.3,61.4,111z"/>
				<path class="st4" d="M-30.3,161.1l5,0l11,0c0.1-18.6,11.3-36.2,29.7-43.5c3-1.2,6-2,9-2.6l-2-10.9l-0.9-4.9
					c-4,0.7-8.1,1.9-12,3.4C-15.2,112.5-30.3,136.1-30.3,161.1z"/>
				<path class="st4" d="M29,219.1l0.7-11C12.1,207-4.1,196-11,178.6c-2.3-5.7-3.3-11.6-3.3-17.4l-11,0c0,7.2,1.3,14.4,4.1,21.5
					C-12.8,204.2,7.3,217.8,29,219.1z"/>
				<path class="st4" d="M55.9,120.6l5.5-9.6c-11.6-6.6-25.4-9.2-39.1-6.8l2,10.9C35.3,113.1,46.5,115.2,55.9,120.6z"/>
				<path class="st4" d="M61.4,111l-5.5,9.6c8.9,5.1,16.2,13.1,20.3,23.4c9.6,24.1-2.2,51.4-26.3,60.9c-6.6,2.6-13.5,3.6-20.2,3.2
					l-0.7,11c8.3,0.5,16.8-0.7,25-4c29.8-11.8,44.3-45.5,32.5-75.3c-3.6-9-9.1-16.6-16-22.5l3.1-3.9c-3-2.6-6.3-4.9-9.7-6.8
					L61.4,111z"/>
			</g>
			
				<ellipse transform="matrix(0.9297 -0.3684 0.3684 0.9297 -57.2801 2.672)" class="st4" cx="-21.6" cy="151.3" rx="5.3" ry="5.3"/>
			<line class="st5" x1="33.1" y1="216.7" x2="33.2" y2="211.1"/>
			<line class="st5" x1="37" y1="216.4" x2="36.6" y2="211.2"/>
			<g>
				<path class="st6" d="M15.3,137.6l-6.1-10.8c-12.7,8.9-19.9,24.8-17.7,40.1l12-2.8C1.9,153.4,6.3,143.9,15.3,137.6z"/>
			</g>
			<g>
				<path class="st6" d="M49.9,184.9l6.1,10.8c12.7-8.9,19.9-24.8,17.7-40.1l-12,2.8C63.3,169.2,58.9,178.6,49.9,184.9z"/>
			</g>
			
				<ellipse transform="matrix(0.9297 -0.3684 0.3684 0.9297 -57.1472 23.3683)" class="st6" cx="32.6" cy="161.3" rx="23.9" ry="23.9"/>
		</g>
		<g class="st1">
			<path class="st2" d="M129.5,23.9l-3.2,8.7c-0.4,1-1.8,1.5-3.1,1l-15.5-7.8c-1.3-0.5-2.1-1.7-1.7-2.8l1.8-4.9c0.4-1,1.8-1.5,3.1-1
				l16.9,4.1C129.1,21.6,129.9,22.9,129.5,23.9z"/>
			
				<ellipse transform="matrix(0.3438 -0.9391 0.9391 0.3438 52.3498 119.4421)" class="st3" cx="111.6" cy="22.3" rx="2.6" ry="2.6"/>
			<path class="st2" d="M93.6-38l8.7,3.2c1,0.4,1.5,1.8,1,3.1l-7.8,15.5c-0.5,1.3-1.7,2.1-2.8,1.7l-4.9-1.8c-1-0.4-1.5-1.8-1-3.1
				l4.1-16.9C91.3-37.6,92.6-38.4,93.6-38z"/>
			<ellipse transform="matrix(0.3438 -0.9391 0.9391 0.3438 79.2351 73.1735)" class="st3" cx="92" cy="-20.1" rx="2.6" ry="2.6"/>
			<path class="st2" d="M31.7-2.1l3.2-8.7c0.4-1,1.8-1.5,3.1-1L53.5-4c1.3,0.5,2.1,1.7,1.7,2.8l-1.8,4.9c-0.4,1-1.8,1.5-3.1,1
				L33.4,0.7C32.1,0.2,31.3-1,31.7-2.1z"/>
			<ellipse transform="matrix(0.3438 -0.9391 0.9391 0.3438 32.9665 46.2882)" class="st3" cx="49.6" cy="-0.4" rx="2.6" ry="2.6"/>
			<path class="st2" d="M67.6,59.8L59,56.6c-1-0.4-1.5-1.8-1-3.1l7.8-15.5c0.5-1.3,1.7-2.1,2.8-1.7l4.9,1.8c1,0.4,1.5,1.8,1,3.1
				l-4.1,16.9C69.9,59.4,68.7,60.2,67.6,59.8z"/>
			<ellipse transform="matrix(0.3438 -0.9391 0.9391 0.3438 6.0812 92.5568)" class="st3" cx="69.3" cy="41.9" rx="2.6" ry="2.6"/>
			<g>
				<path class="st4" d="M135.1,30.8c-11,30.1-44.3,45.5-74.4,34.5c-8.3-3-15.5-7.8-21.3-13.7l-3.5,3.5l3.5-3.5
					C24.1,36.2,18.2,12.8,26.2-9c2.6-7.1,6.5-13.4,11.3-18.8l-3.7-3.3c-5.2,5.8-9.4,12.6-12.2,20.4C9.6,21.9,26.3,58.1,59,70
					s68.8-4.8,80.7-37.5c3.6-9.9,4.6-20.2,3.3-30l-4.9,0.8C139.3,12.4,138.4,21.7,135.1,30.8z"/>
				<path class="st4" d="M135.6-7.4l4.7-1.6c-4.6-13.8-13.9-25.9-26.8-33.7l-2.6,4.2C122.8-31.3,131.4-20.1,135.6-7.4z"/>
				<path class="st4" d="M33.7-31.1l3.7,3.3l8.2,7.4C58.1-34.3,78.2-40,96.8-33.2c3,1.1,5.8,2.5,8.4,4.1l5.8-9.4l2.6-4.2
					c-3.5-2.1-7.3-4-11.3-5.4C77.4-57.3,50.4-49.7,33.7-31.1z"/>
				<path class="st4" d="M39.4,51.7l7.8-7.8C34.9,31.4,30.1,12.4,36.5-5.2c2.1-5.8,5.2-10.9,9.1-15.2l-8.2-7.4
					C32.7-22.5,28.8-16.2,26.2-9C18.2,12.8,24.1,36.2,39.4,51.7z"/>
				<path class="st4" d="M125.1-3.9l10.5-3.5c-4.2-12.7-12.8-23.8-24.7-31.1l-5.8,9.4C114.7-23.2,121.7-14.2,125.1-3.9z"/>
				<path class="st4" d="M135.6-7.4l-10.5,3.5c3.3,9.7,3.4,20.6-0.4,31C115.8,51.4,88.8,63.9,64.5,55c-6.7-2.5-12.5-6.3-17.2-11.1
					l-7.8,7.8c5.8,5.9,13,10.6,21.3,13.7c30.1,11,63.4-4.4,74.4-34.5c3.3-9.1,4.2-18.5,3-27.5l4.9-0.8c-0.5-3.9-1.4-7.8-2.7-11.6
					L135.6-7.4z"/>
			</g>
			<ellipse transform="matrix(0.3438 -0.9391 0.9391 0.3438 61.3026 22.504)" class="st4" cx="46.8" cy="-32.6" rx="5.3" ry="5.3"/>
			<line class="st5" x1="44.1" y1="52.6" x2="47.9" y2="48.5"/>
			<line class="st5" x1="47.2" y1="55" x2="50.4" y2="50.8"/>
			<g>
				<path class="st6" d="M51.4,8.1L39.3,5.5C37.5,21,44.5,36.9,57.5,45.5l5.9-10.8C54.2,28.6,50.1,19,51.4,8.1z"/>
			</g>
			<g>
				<path class="st6" d="M77.8,40.1l-2.6,12.1c15.4,1.8,31.3-5.3,39.9-18.2l-10.8-5.9C98.2,37.2,88.7,41.3,77.8,40.1z"/>
			</g>
			<g>
				<path class="st6" d="M67.4-8.9l19.9,42.8c0.8-0.2,1.5-0.5,2.2-0.8L69.5-10.1C68.8-9.8,68.1-9.4,67.4-8.9z"/>
				<path class="st6" d="M71.6-11.1l20.1,43.2c0.7-0.4,1.4-0.8,2-1.2L73.9-11.9C73.1-11.7,72.4-11.4,71.6-11.1z"/>
				<path class="st6" d="M58.2,2.8C53.7,15.1,60,28.8,72.4,33.4c4.2,1.5,8.5,1.8,12.6,1.1L65.5-7.5C62.3-4.9,59.7-1.4,58.2,2.8z"/>
			</g>
		</g>
		<g class="st1">
			<path class="st2" d="M236.5,111.4l2.3,9c0.3,1.1-0.6,2.2-1.9,2.6l-17.2,2.3c-1.3,0.3-2.7-0.2-2.9-1.3l-1.3-5.1
				c-0.3-1.1,0.6-2.2,1.9-2.6l16.2-6.2C234.9,109.7,236.2,110.3,236.5,111.4z"/>
			
				<ellipse transform="matrix(0.9687 -0.2481 0.2481 0.9687 -22.9166 58.5448)" class="st3" cx="220.8" cy="120.2" rx="2.6" ry="2.6"/>
			<path class="st2" d="M171.8,80.7l9-2.3c1.1-0.3,2.2,0.6,2.6,1.9l2.3,17.2c0.3,1.3-0.2,2.7-1.3,2.9l-5.1,1.3
				c-1.1,0.3-2.2-0.6-2.6-1.9l-6.2-16.2C170.2,82.3,170.8,81,171.8,80.7z"/>
			
				<ellipse transform="matrix(0.9687 -0.2481 0.2481 0.9687 -18.2679 47.8283)" class="st3" cx="180.6" cy="96.4" rx="2.6" ry="2.6"/>
			<path class="st2" d="M141.1,145.4l-2.3-9c-0.3-1.1,0.6-2.2,1.9-2.6l17.2-2.3c1.3-0.3,2.7,0.2,2.9,1.3l1.3,5.1
				c0.3,1.1-0.6,2.2-1.9,2.6l-16.2,6.2C142.7,147,141.4,146.4,141.1,145.4z"/>
			
				<ellipse transform="matrix(0.9687 -0.2481 0.2481 0.9687 -28.9844 43.1796)" class="st3" cx="156.8" cy="136.6" rx="2.6" ry="2.6"/>
			<path class="st2" d="M205.8,176l-9,2.3c-1.1,0.3-2.2-0.6-2.6-1.9l-2.3-17.2c-0.3-1.3,0.2-2.7,1.3-2.9l5.1-1.3
				c1.1-0.3,2.2,0.6,2.6,1.9l6.2,16.2C207.5,174.4,206.9,175.8,205.8,176z"/>
			
				<ellipse transform="matrix(0.9687 -0.2481 0.2481 0.9687 -33.6331 53.8961)" class="st3" cx="197" cy="160.4" rx="2.6" ry="2.6"/>
			<g>
				<path class="st4" d="M245,114c7.9,31-10.8,62.6-41.8,70.5c-8.6,2.2-17.1,2.4-25.3,0.8l-0.9,4.9l0.9-4.9
					c-21.4-4.1-39.5-20.1-45.3-42.6c-1.9-7.4-2.3-14.8-1.3-21.9l-4.9-0.6c-1,7.7-0.6,15.7,1.5,23.7c8.6,33.7,42.9,54,76.6,45.3
					s54-42.9,45.3-76.6c-2.6-10.2-7.6-19.3-14.3-26.6l-3.6,3.4C238,96.4,242.6,104.6,245,114z"/>
				<path class="st4" d="M223.8,82.1l3-4c-11.6-8.7-26.1-13.4-41.2-12.6l0.3,4.9C199.7,69.7,213.1,74.1,223.8,82.1z"/>
				<path class="st4" d="M126.4,120.3l4.9,0.6l10.9,1.4c2.4-18.5,15.8-34.5,34.9-39.4c3.1-0.8,6.2-1.3,9.2-1.4l-0.6-11l-0.3-4.9
					c-4.1,0.2-8.2,0.8-12.4,1.9C147.5,74,129.6,95.5,126.4,120.3z"/>
				<path class="st4" d="M177.9,185.3l2.1-10.8c-17.3-3.3-32-16.3-36.6-34.5c-1.5-6-1.8-11.9-1.1-17.7l-10.9-1.4
					c-0.9,7.1-0.5,14.5,1.3,21.9C138.4,165.2,156.6,181.2,177.9,185.3z"/>
				<path class="st4" d="M217.1,90.9l6.7-8.8c-10.7-8.1-24.1-12.4-37.9-11.6l0.6,11C197.6,80.9,208.5,84.4,217.1,90.9z"/>
				<path class="st4" d="M223.8,82.1l-6.7,8.8c8.2,6.2,14.4,15.1,17.2,25.8c6.4,25.1-8.7,50.7-33.8,57.1c-6.9,1.8-13.9,1.9-20.5,0.6
					l-2.1,10.8c8.1,1.6,16.7,1.4,25.3-0.8c31-7.9,49.7-39.5,41.8-70.5c-2.4-9.4-7-17.6-13-24.4l3.6-3.4c-2.7-2.9-5.6-5.6-8.8-8
					L223.8,82.1z"/>
			</g>
			
				<ellipse transform="matrix(0.9687 -0.2481 0.2481 0.9687 -23.4478 37.3006)" class="st4" cx="136.3" cy="111.7" rx="5.3" ry="5.3"/>
			<line class="st5" x1="182.3" y1="183.4" x2="183.1" y2="177.9"/>
			<line class="st5" x1="186.2" y1="183.6" x2="186.5" y2="178.4"/>
			<g>
				<path class="st6" d="M171.1,139.8l-19.4,7.6c7.3,13.7,22.1,22.8,37.6,22.6l-1.8-20.2C176.5,149.9,176.2,149.4,171.1,139.8z"/>
			</g>
			<g>
				<path class="st6" d="M153.2,102.6c-0.5,0.6-1,1.3-1.4,1.9l26.1,16.1c0.4-0.7,0.9-1.3,1.5-1.9L153.2,102.6z"/>
				<path class="st6" d="M227.2,149.9c0.4-0.7,0.7-1.4,1-2.2l-25.8-15.4c-0.2,0.8-0.5,1.5-0.9,2.2L227.2,149.9z"/>
				<path class="st6" d="M176,131.7c-0.4-1.4-0.5-2.8-0.4-4.2l-9.7-5.7c-1.2,4-1.3,8.3-0.2,12.6c3.3,12.8,16.3,20.5,29,17.2
					c4.3-1.1,8-3.3,10.9-6.2l-9.1-5.4c-1.2,0.7-2.5,1.3-3.9,1.6C185.4,143.5,177.9,139,176,131.7z"/>
				<path class="st6" d="M202.4,132.4c0.7-2.4,0.9-5,0.2-7.5c-1.9-7.4-9.4-11.8-16.7-9.9c-2.6,0.7-4.8,2-6.5,3.8L202.4,132.4z"/>
			</g>
			<g>
				<path class="st6" d="M214,113.7l11.4-4.7c-7.3-13.7-22.1-22.8-37.6-22.6l1.3,12.2C200.1,98.5,208.9,104,214,113.7z"/>
			</g>
		</g>
	</g>
	<line class="st3" x1="94.5" y1="150.1" x2="127.4" y2="142.2"/>
	<line class="st3" x1="147.3" y1="81" x2="124.1" y2="56.4"/>
	<path class="st7" d="M134.5,67.4"/>
	<path class="st7" d="M100,100"/>
	<line class="st3" x1="59.4" y1="70.2" x2="50.2" y2="100.9"/>
	<path class="st7" d="M54.5,86.4"/>
	<path class="st7" d="M100,100"/>
	<path class="st7" d="M118.2,176.6"/>
	<path class="st7" d="M100,100"/>
	<circle class="st3" cx="108.7" cy="136.7" r="3.4"/>
	<circle class="st3" cx="113.3" cy="156" r="3.4"/>
	<ellipse transform="matrix(0.866 -0.5 0.5 0.866 -19.9716 73.6369)" class="st3" cx="127.4" cy="74.1" rx="3.4" ry="3.4"/>
	<ellipse transform="matrix(0.866 -0.5 0.5 0.866 -11.2306 79.0173)" class="st3" cx="141.8" cy="60.5" rx="3.4" ry="3.4"/>
	<ellipse transform="matrix(0.5 -0.866 0.866 0.5 -45.3335 99.897)" class="st3" cx="63.8" cy="89.2" rx="3.4" ry="3.4"/>
	<ellipse transform="matrix(0.5 -0.866 0.866 0.5 -49.9241 80.6067)" class="st3" cx="44.8" cy="83.5" rx="3.4" ry="3.4"/>
</g>
</svg>
