<?xml version="1.0" encoding="utf-8"?>
<!-- Generator: Adobe Illustrator 19.2.1, SVG Export Plug-In . SVG Version: 6.00 Build 0)  -->
<svg version="1.1" id="Layer_1" xmlns="http://www.w3.org/2000/svg" xmlns:xlink="http://www.w3.org/1999/xlink" x="0px" y="0px"
	 viewBox="0 0 505.9 177.9" style="enable-background:new 0 0 505.9 177.9;" xml:space="preserve">
<style type="text/css">
	.st0{fill:#FFFFFF;}
	.st1{fill:none;}
	.st2{enable-background:new    ;}
</style>
<path class="st0" d="M62,53.8h381.8c34.1,0,62,27.9,62,62l0,0c0,34.1-27.9,62-62,62H62c-34.1,0-62-27.9-62-62l0,0
	C0,81.7,27.9,53.8,62,53.8z"/>
<rect x="53" y="83.4" class="st1" width="447" height="94"/>
<g class="st2">
	<path d="M68.3,113.5h-7.5V89.1h7.5V113.5z"/>
	<path d="M80.8,93.3c0,3.4-1.9,6.3-5.5,7.9L72.1,99c2.4-0.9,4.2-2.1,4.9-4l-0.2-0.1c-0.3,0.3-0.6,0.5-1.1,0.5
		c-1.7,0-3.4-1.1-3.4-3.4c0-2.6,1.7-3.8,4.1-3.8C79.4,88.2,80.8,90.5,80.8,93.3z"/>
	<path d="M114.7,101v12.5h-7.4v-10.6c0-2-0.7-2.6-1.8-2.6c-1.5,0-2.5,1.1-2.5,3.5v9.7h-7.4v-10.6c0-2-0.7-2.6-1.8-2.6
		c-1.4,0-2.5,1.1-2.5,3.5v9.7h-7.4V95h6.7l0.2,3.8c1.1-2.7,3.3-4.2,6.3-4.2c2.8,0,4.8,1.3,5.6,3.7c1.1-2.4,3.3-3.7,6.1-3.7
		C112.3,94.6,114.7,96.9,114.7,101z"/>
	<path d="M128.5,89.1h12.9c6.1,0,9,2.2,9,6.5c0,2.8-1.7,5-5.2,5.5v0c4,0.5,5.9,2.7,5.9,5.8c0,4.2-2.9,6.5-8.8,6.5h-13.7V89.1z
		 M139.9,98.8c1.9,0,2.8-0.7,2.8-2.2c0-1.4-0.9-2.2-2.8-2.2h-4.1v4.4H139.9z M140.5,108.4c1.9,0,2.8-0.7,2.8-2.2
		c0-1.4-0.9-2.2-2.8-2.2h-4.8v4.4H140.5z"/>
	<path d="M173.5,109.2l-0.6,3.9c-0.8,0.4-1.7,0.7-2.6,0.7c-2.7,0-4.7-1-5.3-3c-1,1.8-3.2,3-6.6,3c-3.8,0-5.7-1.6-5.7-4.5
		c0-3.1,2-4.9,7.2-6l3.9-0.8v-0.7c0-1.4-0.8-2.2-2.1-2.2c-1.4,0-2.4,0.6-2.7,2.5l-6.1-1.3c0.5-3.8,3.5-6.2,9-6.2
		c6.2,0,9.2,2.4,9.2,7.3v5.9c0,1,0.4,1.5,1.3,1.5C172.9,109.4,173.2,109.3,173.5,109.2z M163.8,107.3v-1.7l-2,0.5
		c-1.3,0.3-1.9,1-1.9,1.9c0,1,0.6,1.4,1.5,1.4C162.6,109.5,163.8,108.7,163.8,107.3z"/>
	<path d="M182.7,106.6c0,1.5,0.4,2.2,1.6,2.2c0.6,0,1-0.1,1.6-0.3l-0.4,4.2c-0.9,0.6-2.7,1.1-4.2,1.1c-4.3,0-6-1.8-6-6.2V87.4h7.4
		V106.6z"/>
	<path d="M195,106.6c0,1.5,0.4,2.2,1.6,2.2c0.6,0,1-0.1,1.6-0.3l-0.4,4.2c-0.9,0.6-2.7,1.1-4.2,1.1c-4.3,0-6-1.8-6-6.2V87.4h7.4
		V106.6z"/>
	<path d="M232.8,101.3c0,7.7-4.1,12.2-11.7,12.2h-11.2V89.1h11.2C228.7,89.1,232.8,93.5,232.8,101.3z M225.1,101.3
		c0-4.5-1.3-6.7-4.9-6.7h-2.7V108h2.7C223.8,108,225.1,105.8,225.1,101.3z"/>
	<path d="M250.2,95.1l-0.7,6.2c-0.4-0.3-1.3-0.6-2.3-0.6c-2.2,0-3.9,1.2-3.9,3.7v9.1h-7.4V95h6.7l0.2,4.3c0.8-2.9,2.6-4.7,5.5-4.7
		C249.3,94.6,249.9,94.9,250.2,95.1z"/>
	<path d="M271.2,104.2c0,6-3.7,9.6-10,9.6s-10-3.5-10-9.6c0-6,3.7-9.6,10-9.6S271.2,98.2,271.2,104.2z M258.6,104.2
		c0,3.4,0.7,4.5,2.5,4.5s2.5-1.1,2.5-4.5c0-3.4-0.7-4.5-2.5-4.5S258.6,100.9,258.6,104.2z"/>
	<path d="M273.6,90.1c0-2.4,1.2-3.3,4.2-3.3s4.2,1,4.2,3.3c0,2.3-1.2,3.3-4.2,3.3S273.6,92.4,273.6,90.1z M281.5,113.5H274V95h7.4
		V113.5z"/>
	<path d="M304.6,87.4v26h-6.7l-0.3-3.6c-1,2.4-3.1,3.9-5.9,3.9c-4.6,0-7.3-3.5-7.3-9.5c0-6.1,2.7-9.7,7.3-9.7c2.7,0,4.4,1.4,5.3,3.5
		V87.4H304.6z M297.2,104.4v-0.3c0-2.7-0.8-4.1-2.5-4.1c-1.6,0-2.6,1.1-2.6,4.2c0,3.2,1,4.3,2.6,4.3
		C296.2,108.5,297.2,107.3,297.2,104.4z"/>
	<path d="M316.2,111.6c0,3.4-1.9,6.3-5.5,7.9l-3.2-2.1c2.3-1,4.2-2.2,4.9-4l-0.1-0.1c-0.3,0.3-0.7,0.5-1.2,0.5
		c-1.7,0-3.4-1.1-3.4-3.4c0-2.6,1.7-3.8,4.1-3.8C314.9,106.4,316.2,108.8,316.2,111.6z"/>
	<path d="M337.1,113.5h-7.5V89.1h7.5V113.5z"/>
	<path d="M370.3,114.7c0,4.5-4.1,6.7-10.8,6.7c-7,0-9.8-1.5-9.8-4.1c0-1.5,1-2.9,3.5-3.4c-1.7-0.7-3-2-3-4c0-1.7,1.2-3.1,3.1-3.8
		c-2-1-3.1-2.7-3.1-5c0-4.1,3.4-6.3,9.5-6.3c1.4,0,2.6,0.1,3.7,0.3c0.4-3,2.1-5.8,6-5.4l0.7,4.8c-2.2-0.4-3.7,0.4-4.3,1.4
		c2.2,1,3.4,2.8,3.4,5.2c0,4.1-3.4,6.2-9.5,6.2c-1.4,0-2.7-0.1-3.9-0.3c-0.6,0.1-0.8,0.4-0.8,0.9c0,0.7,0.6,1,1.7,1h6.3
		C367.8,108.8,370.3,110.7,370.3,114.7z M364.6,115.4c0-0.5-0.4-0.8-1.8-0.8h-5.1c-1.9,0-2.5,0.3-2.5,1c0,0.8,1.4,1.2,4.8,1.2
		C363.2,116.7,364.6,116.2,364.6,115.4z M357.7,100.9c0,1.4,0.8,2.2,2.1,2.2s2.1-0.9,2.1-2.2c0-1.4-0.8-2.2-2.1-2.2
		S357.7,99.5,357.7,100.9z"/>
	<path d="M391.4,104.2c0,6-3.7,9.6-10,9.6c-6.3,0-10-3.5-10-9.6c0-6,3.7-9.6,10-9.6C387.7,94.6,391.4,98.2,391.4,104.2z
		 M378.9,104.2c0,3.4,0.7,4.5,2.5,4.5c1.8,0,2.5-1.1,2.5-4.5c0-3.4-0.7-4.5-2.5-4.5C379.6,99.8,378.9,100.9,378.9,104.2z"/>
	<path d="M422.7,112.5c-1.3,0.8-3.5,1.3-5.4,1.3c-4.7,0-7.4-1.7-7.4-6.3v-7.4h-6.9v6.2c0,1.7,0.4,2.4,1.8,2.4c1,0,1.6-0.2,2.2-0.7
		l0.6,4.4c-1.2,0.8-3.3,1.3-5.1,1.3c-4.5,0-7-1.7-7-6.3v-7.4h-3V95h3v-4l7.5-2.1V95h6.9v-4l7.5-2.1V95h5.1v5.1h-5.1v6.2
		c0,1.7,0.8,2.4,2.3,2.4c1.1,0,1.8-0.2,2.5-0.6L422.7,112.5z"/>
	<path d="M445,109.2l-0.6,3.9c-0.8,0.4-1.7,0.7-2.6,0.7c-2.7,0-4.7-1-5.3-3c-1,1.8-3.2,3-6.6,3c-3.8,0-5.7-1.6-5.7-4.5
		c0-3.1,2-4.9,7.2-6l3.9-0.8v-0.7c0-1.4-0.8-2.2-2.1-2.2c-1.4,0-2.4,0.6-2.7,2.5l-6.1-1.3c0.5-3.8,3.5-6.2,9-6.2
		c6.2,0,9.2,2.4,9.2,7.3v5.9c0,1,0.4,1.5,1.3,1.5C444.4,109.4,444.7,109.3,445,109.2z M435.3,107.3v-1.7l-2,0.5
		c-1.3,0.3-1.9,1-1.9,1.9c0,1,0.6,1.4,1.5,1.4C434.1,109.5,435.3,108.7,435.3,107.3z"/>
	<path d="M109.1,130.1l-0.7,6.2c-0.4-0.3-1.3-0.6-2.3-0.6c-2.2,0-3.9,1.2-3.9,3.7v9.1h-7.4V130h6.7l0.2,4.3c0.8-2.9,2.6-4.7,5.5-4.7
		C108.2,129.6,108.7,129.9,109.1,130.1z"/>
	<path d="M130,139.2c0,6-3.7,9.6-10,9.6c-6.3,0-10-3.5-10-9.6c0-6,3.7-9.6,10-9.6C126.3,129.6,130,133.2,130,139.2z M117.5,139.2
		c0,3.4,0.7,4.5,2.5,4.5c1.8,0,2.5-1.1,2.5-4.5c0-3.4-0.7-4.5-2.5-4.5C118.2,134.8,117.5,135.9,117.5,139.2z"/>
	<path d="M140.3,141.5c0,1.5,0.4,2.2,1.6,2.2c0.6,0,1-0.1,1.6-0.3l-0.4,4.2c-0.9,0.6-2.7,1.1-4.2,1.1c-4.3,0-6-1.8-6-6.2v-20.2h7.5
		V141.5z"/>
	<path d="M152.6,141.5c0,1.5,0.4,2.2,1.6,2.2c0.6,0,1-0.1,1.6-0.3l-0.4,4.2c-0.9,0.6-2.7,1.1-4.2,1.1c-4.3,0-6-1.8-6-6.2v-20.2h7.5
		V141.5z"/>
	<path d="M186.4,139.2c0,6-3.7,9.6-10,9.6c-6.3,0-10-3.5-10-9.6c0-6,3.7-9.6,10-9.6C182.7,129.6,186.4,133.2,186.4,139.2z
		 M173.8,139.2c0,3.4,0.7,4.5,2.5,4.5c1.8,0,2.5-1.1,2.5-4.5c0-3.4-0.7-4.5-2.5-4.5C174.5,134.8,173.8,135.9,173.8,139.2z"/>
	<path d="M208.5,136v12.5h-7.4V138c0-2.1-0.7-2.8-1.9-2.8c-1.5,0-2.5,1-2.5,3.5v9.7h-7.4V130h6.7l0.2,3.8c1.1-2.7,3.3-4.2,6.3-4.2
		C206.2,129.6,208.5,131.9,208.5,136z"/>
	<path d="M241.2,139.2c0,6-3.7,9.6-10,9.6c-6.3,0-10-3.5-10-9.6c0-6,3.7-9.6,10-9.6C237.5,129.6,241.2,133.2,241.2,139.2z
		 M228.7,139.2c0,3.4,0.7,4.5,2.5,4.5c1.8,0,2.5-1.1,2.5-4.5c0-3.4-0.7-4.5-2.5-4.5C229.4,134.8,228.7,135.9,228.7,139.2z"/>
	<path d="M263.3,130v18.4h-6.7l-0.2-3.7c-1.1,2.7-3.3,4-6.3,4c-3.8,0-6.1-1.8-6.1-6.4V130h7.4v10.5c0,2,0.7,2.7,1.9,2.7
		c1.5,0,2.5-1.1,2.5-3.5V130H263.3z"/>
	<path d="M295.4,147.5c-1.3,0.8-3.5,1.3-5.4,1.3c-4.7,0-7.4-1.7-7.4-6.3v-7.4h-6.9v6.2c0,1.7,0.4,2.4,1.8,2.4c1,0,1.6-0.2,2.2-0.7
		l0.6,4.4c-1.2,0.8-3.3,1.3-5.1,1.3c-4.5,0-7-1.7-7-6.3v-7.4h-3V130h3v-4l7.5-2.1v6.1h6.9v-4l7.5-2.1v6.1h5.1v5.1h-5.1v6.2
		c0,1.7,0.8,2.4,2.3,2.4c1.1,0,1.8-0.2,2.5-0.6L295.4,147.5z"/>
	<path d="M317.7,144.2l-0.6,3.9c-0.8,0.4-1.7,0.7-2.6,0.7c-2.7,0-4.7-1-5.3-3c-1,1.8-3.2,3-6.6,3c-3.8,0-5.7-1.6-5.7-4.5
		c0-3.1,2-4.9,7.2-6l3.9-0.8v-0.7c0-1.4-0.8-2.2-2.1-2.2c-1.4,0-2.4,0.6-2.7,2.5l-6.1-1.3c0.5-3.8,3.5-6.2,9-6.2
		c6.2,0,9.2,2.4,9.2,7.3v5.9c0,1,0.4,1.5,1.3,1.5C317.1,144.3,317.4,144.3,317.7,144.2z M308,142.3v-1.7l-2,0.5
		c-1.3,0.3-1.9,1-1.9,1.9c0,1,0.6,1.4,1.5,1.4C306.8,144.5,308,143.7,308,142.3z"/>
	<path d="M348.4,136v12.5H341V138c0-2.1-0.7-2.8-1.9-2.8c-1.5,0-2.5,1.1-2.5,3.5v9.7h-7.4v-26h7.4v11.2c1.1-2.6,3.1-3.9,5.8-3.9
		C346.1,129.6,348.4,131.9,348.4,136z"/>
	<path d="M370.5,140.9h-12.1c0.3,2.2,1.4,2.8,3.2,2.8c1.5,0,2.4-0.6,2.8-1.8l6,1.7c-1,3.4-4.4,5.1-8.8,5.1c-6.7,0-10.3-3.5-10.3-9.6
		c0-6.1,3.6-9.6,9.9-9.6c6.3,0,9.6,3.6,9.6,9.1C370.7,139.5,370.6,140.4,370.5,140.9z M358.4,137.7h5.3c-0.3-2-1-3-2.5-3
		C359.6,134.7,358.7,135.5,358.4,137.7z"/>
	<path d="M387.9,130.1l-0.7,6.2c-0.4-0.3-1.3-0.6-2.3-0.6c-2.2,0-3.9,1.2-3.9,3.7v9.1h-7.4V130h6.7l0.2,4.3c0.8-2.9,2.6-4.7,5.5-4.7
		C386.9,129.6,387.5,129.9,387.9,130.1z"/>
	<path d="M408,140.9h-12.1c0.3,2.2,1.4,2.8,3.2,2.8c1.5,0,2.4-0.6,2.8-1.8l6,1.7c-1,3.4-4.4,5.1-8.8,5.1c-6.7,0-10.3-3.5-10.3-9.6
		c0-6.1,3.6-9.6,9.9-9.6c6.3,0,9.6,3.6,9.6,9.1C408.2,139.5,408.2,140.4,408,140.9z M395.9,137.7h5.3c-0.3-2-1-3-2.5-3
		C397.1,134.7,396.2,135.5,395.9,137.7z"/>
	<path d="M418.9,145.1c0,2.3-1.5,3.7-4.1,3.7c-2.6,0-4.1-1.3-4.1-3.7c0-2.3,1.5-3.7,4.1-3.7C417.3,141.4,418.9,142.8,418.9,145.1z"
		/>
</g>
<polygon class="st0" points="447.3,64.3 415.4,0 382.1,64.3 "/>
</svg>
