<?xml version="1.0" encoding="utf-8"?>
<!-- Generator: Adobe Illustrator 19.2.1, SVG Export Plug-In . SVG Version: 6.00 Build 0)  -->
<svg version="1.1" id="Layer_1" xmlns="http://www.w3.org/2000/svg" xmlns:xlink="http://www.w3.org/1999/xlink" x="0px" y="0px"
	 viewBox="0 0 300.7 95.8" style="enable-background:new 0 0 300.7 95.8;" xml:space="preserve">
<style type="text/css">
	.st0{fill:#D68A04;}
	.st1{fill:#EECC4C;}
</style>
<rect y="12.7" class="st0" width="300.7" height="83.1"/>
<g>
	<path class="st1" d="M150.4,10.5C79.2,15.4,47.9,0,47.9,0S41.1,27.5,150.4,10.5z"/>
	<path class="st0" d="M47.9,0C25.4,7.3,0,6.4,0,6.4v89.4l150.4-0.1V10.5C41.1,27.5,47.9,0,47.9,0z"/>
</g>
<g>
	<path class="st1" d="M300.7,6.5C229.5,11.4,198.2,0,198.2,0S191.4,23.5,300.7,6.5z"/>
	<path class="st0" d="M198.2,0c-22.5,7.3-47.8,10.5-47.8,10.5v85.2h150.3V6.5C191.5,23.5,198.2,0,198.2,0z"/>
</g>
</svg>
