<?xml version="1.0" encoding="UTF-8" standalone="no"?>
<svg width="170px" height="95px" viewBox="0 0 170 95" version="1.1" xmlns="http://www.w3.org/2000/svg" xmlns:xlink="http://www.w3.org/1999/xlink" xmlns:sketch="http://www.bohemiancoding.com/sketch/ns">
    <!-- Generator: Sketch 3.5.2 (25235) - http://www.bohemiancoding.com/sketch -->
    <title>Page 1</title>
    <desc>Created with Sketch.</desc>
    <defs>
        <path d="M63.291,0 L50.153,33.938 L52.698,7.982 L59.055,7.982 L62.146,0 L23.957,0 C20.646,0 18.819,0.825 17.38,3.315 L17.38,3.315 L11.016,14.317 C9.286,17.308 10.32,19.395 13.116,19.395 L13.116,19.395 L24.643,19.395 C25.69,19.395 26.096,20.411 25.676,21.532 L25.676,21.532 L24.792,23.888 C24.516,24.625 24.011,25.368 22.949,25.368 L22.949,25.368 L20.717,25.368 C19.673,25.368 19.111,24.076 19.565,23.03 L19.565,23.03 L19.917,22.217 L6.448,22.217 L2.07,29.786 C-0.287,33.861 1.381,35.642 5.036,35.642 L5.036,35.642 L29.136,35.642 C31.699,35.642 34.798,34.995 35.542,31.921 L35.542,31.921 L39.556,15.31 C40.266,12.374 39.765,11.038 36.935,11.038 L36.935,11.038 L26.961,11.038 C26.183,11.038 25.246,9.863 25.643,9.014 L25.643,9.014 C26.041,8.166 27.988,8.011 28.429,8.01 L28.429,8.01 L42.527,7.982 L36.261,35.642 L61.615,35.642 L63.554,28.876 L69.429,28.876 L69.889,35.642 L83.253,35.642 L75.651,0 L63.291,0 Z M67.598,14.765 L68.472,14.765 L68.931,21.532 L65.659,21.532 L67.598,14.765 Z" id="path-1"></path>
        <path d="M0.318,0 L8.395,35.643 L22.167,35.643 L17.151,21.533 L17.636,21.533 L28.337,35.643 L43.518,35.658 L30.641,21.533 C30.641,21.533 29.555,20.34 31.149,19.904 L31.149,19.904 C32.742,19.467 33.602,17.8 32.529,15.866 L32.529,15.866 L25.466,3.147 C24.234,0.928 22.522,0 20.073,0 L20.073,0 L0.318,0 Z M12.334,7.983 L15.926,7.983 C17.105,7.983 18.586,11.039 16.447,11.039 L16.447,11.039 L13.421,11.039 L12.334,7.983 Z" id="path-3"></path>
        <path id="path-5" d="M60.904,0.643 L47.517,21.125 L52.977,0.643 L43.823,0.643 L25.112,22.212 L36.562,0.643 L25.527,0.643 L0,44.783 L18.239,44.783 L34.229,24.28 L35.452,24.28 L30.019,44.783 L45.876,44.783 L73.116,0.643 L60.904,0.643 Z"></path>
        <path d="M27.314,0.643 L0.33,44.783 L16.224,44.783 L20.667,36.535 L28.52,36.535 L27.737,44.783 L43.096,44.783 L42.488,0.643 L27.314,0.643 Z M30.068,20.273 L29.379,27.507 L25.53,27.507 L29.428,20.273 L30.068,20.273 Z" id="path-7"></path>
        <path d="M27.314,0.643 L0.33,44.783 L16.224,44.783 L20.667,36.535 L28.52,36.535 L27.737,44.783 L43.096,44.783 L42.488,0.643 L27.314,0.643 Z M29.428,20.273 L30.068,20.273 L29.379,27.507 L25.53,27.507 L29.428,20.273 Z" id="path-9"></path>
        <path d="M0.795,0.643 L1.849,44.783 L17.305,44.783 L15.136,27.507 L15.677,27.507 L24.705,44.783 L42.008,44.783 L30.171,28.353 C29.57,27.519 28.358,25.861 30.331,25.589 L30.331,25.589 C32.303,25.317 34.347,23.724 32.887,18.43 L32.887,18.43 L29.225,5.146 C28.866,3.846 27.141,0.643 23.595,0.643 L23.595,0.643 L0.795,0.643 Z M13.039,10.793 L16.705,10.793 C18.958,10.793 19.214,15.206 17.693,15.206 L17.693,15.206 L13.592,15.206 L13.039,10.793 Z" id="path-11"></path>
        <path id="path-13" d="M5.354,0.643 C2.817,0.643 -0.026,1.282 0.98,4.819 L0.98,4.819 L5.377,20.273 C6.666,24.8 8.733,25.589 12.502,25.589 L12.502,25.589 L24.453,25.589 C25.52,25.589 26.591,26.528 27.011,27.507 L27.011,27.507 L28.172,30.207 C28.558,31.104 27.841,32.246 26.799,32.246 L26.799,32.246 L24.963,32.246 C24.169,32.246 23.491,31.384 23.203,30.646 L23.203,30.646 L21.97,27.507 L7.435,27.507 L10.898,39.678 C11.702,42.503 13.567,44.783 16.712,44.783 L16.712,44.783 L46.966,44.783 C49.765,44.783 52.145,42.281 50.094,38.584 L50.094,38.584 L38.421,17.563 C37.16,15.289 33.281,15.206 31.716,15.206 L31.716,15.206 L18.888,15.206 C17.973,15.206 16.993,14.819 16.658,13.968 L16.658,13.968 L15.978,12.23 C15.608,11.29 16.132,10.793 17.051,10.793 L17.051,10.793 L18.577,10.793 C19.293,10.793 20.069,11.348 20.35,12.005 L20.35,12.005 L20.996,13.506 L36.169,13.506 L30.356,3.036 C29.325,1.18 27.076,0.643 24.822,0.643 L24.822,0.643 L5.354,0.643 Z"></path>
    </defs>
    <g id="Page-1" stroke="none" stroke-width="1" fill="none" fill-rule="evenodd" sketch:type="MSPage">
        <g sketch:type="MSLayerGroup">
            <path d="M93.6591,21.5316 L96.9311,21.5316 L96.4721,14.7656 L95.5981,14.7656 L93.6591,21.5316 Z M30.0701,29.7856 L34.4481,22.2176 L47.9171,22.2176 L47.5651,23.0296 C47.1111,24.0766 47.6731,25.3676 48.7161,25.3676 L50.9481,25.3676 C52.0111,25.3676 52.5151,24.6246 52.7911,23.8886 L53.6751,21.5316 C54.0961,20.4106 53.6901,19.3956 52.6441,19.3956 L41.1161,19.3956 C38.3201,19.3956 37.2861,17.3076 39.0171,14.3166 L45.3791,3.3156 C46.8191,0.8246 48.6471,-0.0004 51.9571,-0.0004 L90.1461,-0.0004 L87.0551,7.9826 L80.6981,7.9826 L78.1531,33.9376 L91.2921,-0.0004 L103.6501,-0.0004 L111.2531,35.6416 L97.8891,35.6416 L97.4291,28.8756 L91.5541,28.8756 L89.6161,35.6416 L64.2621,35.6416 L70.5271,7.9826 L56.4291,8.0106 C55.9881,8.0116 54.0411,8.1656 53.6431,9.0146 C53.2461,9.8636 54.1831,11.0386 54.9611,11.0386 L64.9351,11.0386 C67.7651,11.0386 68.2661,12.3736 67.5561,15.3096 L63.5411,31.9206 C62.7981,34.9946 59.7001,35.6416 57.1361,35.6416 L33.0361,35.6416 C29.3811,35.6416 27.7131,33.8606 30.0701,29.7856 L30.0701,29.7856 Z" id="Fill-1" fill="#FFFFFF" sketch:type="MSShapeGroup"></path>
            <g id="Group-6" transform="translate(28.000000, 0.000000)">
                <mask id="mask-2" sketch:name="Clip 4" fill="white">
                    <use xlink:href="#path-1"></use>
                </mask>
                <g id="Clip-4"></g>
                <path d="M-130,921 L245,921 L245,-31 L-130,-31 L-130,921 Z" id="Fill-3" fill="#FFFFFF" sketch:type="MSShapeGroup" mask="url(#mask-2)"></path>
                <path d="M-4.023,-5 L88.253,-5 L88.253,40.642 L-4.023,40.642 L-4.023,-5 Z" id="Fill-5" fill="#FFFFFF" sketch:type="MSShapeGroup" mask="url(#mask-2)"></path>
            </g>
            <path d="M116.3341,7.9833 L117.4211,11.0393 L120.4471,11.0393 C122.5861,11.0393 121.1061,7.9833 119.9251,7.9833 L116.3341,7.9833 Z M104.3181,0.0003 L112.3951,35.6433 L126.1671,35.6433 L121.1511,21.5323 L121.6361,21.5323 L132.3361,35.6433 L147.5171,35.6583 L134.6421,21.5323 C134.6421,21.5323 133.5551,20.3403 135.1491,19.9033 C136.7421,19.4673 137.6011,17.7993 136.5281,15.8663 L129.4661,3.1463 C128.2341,0.9283 126.5211,0.0003 124.0731,0.0003 L104.3181,0.0003 Z" id="Fill-7" fill="#FFFFFF" sketch:type="MSShapeGroup"></path>
            <g id="Group-12" transform="translate(104.000000, 0.000000)">
                <mask id="mask-4" sketch:name="Clip 10" fill="white">
                    <use xlink:href="#path-3"></use>
                </mask>
                <g id="Clip-10"></g>
                <path d="M-206,921 L169,921 L169,-31 L-206,-31 L-206,921 Z" id="Fill-9" fill="#FFFFFF" sketch:type="MSShapeGroup" mask="url(#mask-4)"></path>
                <path d="M-4.682,-5 L48.517,-5 L48.517,40.658 L-4.682,40.658 L-4.682,-5 Z" id="Fill-11" fill="#FFFFFF" sketch:type="MSShapeGroup" mask="url(#mask-4)"></path>
            </g>
            <path d="M25.5271,36.6429 L0.0001,80.7819 L18.2391,80.7819 L34.2291,60.2799 L35.4521,60.2799 L30.0191,80.7819 L45.8761,80.7819 L73.1151,36.6429 L60.9031,36.6429 L47.5171,57.1249 L52.9771,36.6429 L43.8231,36.6429 L25.1131,58.2119 L36.5631,36.6429 L25.5271,36.6429 Z" id="Fill-13" fill="#FFFFFF" sketch:type="MSShapeGroup"></path>
            <g id="Group-18" transform="translate(0.000000, 36.000000)">
                <mask id="mask-6" sketch:name="Clip 16" fill="white">
                    <use xlink:href="#path-5"></use>
                </mask>
                <g id="Clip-16"></g>
                <path d="M-102,885 L273,885 L273,-67 L-102,-67 L-102,885 Z" id="Fill-15" fill="#FFFFFF" sketch:type="MSShapeGroup" mask="url(#mask-6)"></path>
                <path d="M-5,-4.357 L78.115,-4.357 L78.115,49.782 L-5,49.782 L-5,-4.357 Z" id="Fill-17" fill="#FFFFFF" sketch:type="MSShapeGroup" mask="url(#mask-6)"></path>
            </g>
            <path d="M72.5301,63.5069 L76.3791,63.5069 L77.0681,56.2729 L76.4271,56.2729 L72.5301,63.5069 Z M74.3131,36.6429 L89.4871,36.6429 L90.0961,80.7819 L74.7361,80.7819 L75.5201,72.5349 L67.6671,72.5349 L63.2231,80.7819 L47.3291,80.7819 L74.3131,36.6429 Z" id="Fill-19" fill="#FFFFFF" sketch:type="MSShapeGroup"></path>
            <g id="Group-23" transform="translate(47.000000, 36.000000)">
                <mask id="mask-8" sketch:name="Clip 22" fill="white">
                    <use xlink:href="#path-7"></use>
                </mask>
                <g id="Clip-22"></g>
                <path d="M-149,885 L226,885 L226,-67 L-149,-67 L-149,885 Z" id="Fill-21" fill="#FFFFFF" sketch:type="MSShapeGroup" mask="url(#mask-8)"></path>
            </g>
            <g id="Group-26" transform="translate(47.000000, 36.000000)">
                <mask id="mask-10" sketch:name="Clip 25" fill="white">
                    <use xlink:href="#path-9"></use>
                </mask>
                <g id="Clip-25"></g>
                <path d="M-4.67,-4.357 L48.097,-4.357 L48.097,49.782 L-4.67,49.782 L-4.67,-4.357 Z" id="Fill-24" fill="#FFFFFF" sketch:type="MSShapeGroup" mask="url(#mask-10)"></path>
            </g>
            <path d="M103.0393,46.7929 L103.5923,51.2059 L107.6933,51.2059 C109.2133,51.2059 108.9583,46.7929 106.7053,46.7929 L103.0393,46.7929 Z M90.7953,36.6429 L91.8493,80.7819 L107.3053,80.7819 L105.1363,63.5069 L105.6773,63.5069 L114.7043,80.7819 L132.0083,80.7819 L120.1713,64.3529 C119.5703,63.5189 118.3573,61.8609 120.3313,61.5889 C122.3033,61.3169 124.3473,59.7239 122.8873,54.4299 L119.2253,41.1449 C118.8663,39.8459 117.1403,36.6429 113.5943,36.6429 L90.7953,36.6429 Z" id="Fill-27" fill="#FFFFFF" sketch:type="MSShapeGroup"></path>
            <g id="Group-32" transform="translate(90.000000, 36.000000)">
                <mask id="mask-12" sketch:name="Clip 30" fill="white">
                    <use xlink:href="#path-11"></use>
                </mask>
                <g id="Clip-30"></g>
                <path d="M-192,885 L183,885 L183,-67 L-192,-67 L-192,885 Z" id="Fill-29" fill="#FFFFFF" sketch:type="MSShapeGroup" mask="url(#mask-12)"></path>
                <path d="M-4.205,-4.357 L47.007,-4.357 L47.007,49.782 L-4.205,49.782 L-4.205,-4.357 Z" id="Fill-31" fill="#FFFFFF" sketch:type="MSShapeGroup" mask="url(#mask-12)"></path>
            </g>
            <path d="M124.3548,36.6429 L143.8218,36.6429 C146.0758,36.6429 148.3248,37.1799 149.3558,39.0359 L155.1688,49.5059 L139.9958,49.5059 L139.3508,48.0039 C139.0688,47.3479 138.2928,46.7929 137.5768,46.7929 L136.0508,46.7929 C135.1328,46.7929 134.6078,47.2899 134.9778,48.2309 L135.6588,49.9679 C135.9928,50.8189 136.9728,51.2059 137.8878,51.2059 L150.7168,51.2059 C152.2808,51.2059 156.1598,51.2889 157.4218,53.5629 L169.0938,74.5849 C171.1458,78.2809 168.7658,80.7819 165.9658,80.7819 L135.7128,80.7819 C132.5668,80.7819 130.7018,78.5029 129.8978,75.6779 L126.4358,63.5069 L140.9708,63.5069 L142.2028,66.6469 C142.4918,67.3839 143.1688,68.2459 143.9628,68.2459 L145.7988,68.2459 C146.8408,68.2459 147.5578,67.1049 147.1728,66.2069 L146.0118,63.5069 C145.5908,62.5279 144.5198,61.5889 143.4538,61.5889 L131.5028,61.5889 C127.7338,61.5889 125.6658,60.7999 124.3768,56.2729 L119.9798,40.8189 C118.9748,37.2819 121.8168,36.6429 124.3548,36.6429" id="Fill-33" fill="#FFFFFF" sketch:type="MSShapeGroup"></path>
            <g id="Group-38" transform="translate(119.000000, 36.000000)">
                <mask id="mask-14" sketch:name="Clip 36" fill="white">
                    <use xlink:href="#path-13"></use>
                </mask>
                <g id="Clip-36"></g>
                <path d="M-221,885 L154,885 L154,-67 L-221,-67 L-221,885 Z" id="Fill-35" fill="#FFFFFF" sketch:type="MSShapeGroup" mask="url(#mask-14)"></path>
                <path d="M-4.227,-4.357 L55.866,-4.357 L55.866,49.782 L-4.227,49.782 L-4.227,-4.357 Z" id="Fill-37" fill="#FFFFFF" sketch:type="MSShapeGroup" mask="url(#mask-14)"></path>
            </g>
            <g id="Group-69" transform="translate(21.000000, 72.000000)" sketch:type="MSShapeGroup">
                <path d="M116.5764,22.0964 L11.2894,22.0964 C5.4234,22.0964 0.6234,17.2964 0.6234,11.4294 L0.6234,11.4294 C0.6234,5.5634 5.4234,0.7634 11.2894,0.7634 L116.5764,0.7634 C122.4434,0.7634 127.2434,5.5634 127.2434,11.4294 L127.2434,11.4294 C127.2434,17.2964 122.4434,22.0964 116.5764,22.0964" id="Fill-39" fill="#FFFFFF"></path>
                <path d="M14.9332,10.9101 C16.1932,10.9101 16.4422,10.4551 16.4422,9.9281 C16.4422,9.2981 16.0032,9.0201 15.0212,9.0201 L14.5372,9.0201 L14.5372,10.9101 L14.9332,10.9101 Z M11.4302,6.1761 L15.3292,6.1761 C18.0982,6.1761 19.6962,7.2171 19.6962,9.8551 C19.6962,12.4921 17.9372,13.7541 14.9182,13.7541 L14.5372,13.7541 L14.5372,16.4351 L11.4302,16.4351 L11.4302,6.1761 Z" id="Fill-41" fill="#0BAA8E"></path>
                <path d="M24.3913,12.0676 C24.3913,11.5986 24.3183,11.0126 23.9223,11.0126 C23.5123,11.0126 23.4103,11.6286 23.4103,12.0676 L24.3913,12.0676 Z M27.2343,15.9516 C26.4433,16.3616 25.3733,16.5816 24.0983,16.5816 C21.9003,16.5816 20.2003,15.4086 20.2003,13.1076 C20.2003,10.8516 21.4163,9.1816 23.9373,9.1816 C26.3843,9.1816 27.3813,10.7936 27.3813,12.7416 L27.3813,13.6656 L23.3653,13.6656 C23.4683,14.1346 23.9373,14.4266 24.6113,14.4266 C25.3293,14.4266 26.0473,14.2806 26.6483,14.0606 L27.2343,15.9516 Z" id="Fill-43" fill="#0BAA8E"></path>
                <path d="M28.5372,9.3279 L31.2622,9.1509 L31.4822,10.5729 C31.9072,9.9429 32.7132,9.1669 34.0032,9.1669 C34.1492,9.1669 34.2962,9.1809 34.3842,9.1959 L34.2372,11.9809 L34.1052,11.9809 C33.2262,11.9809 32.2892,12.0389 31.5992,12.3169 L31.5992,16.4349 L28.5372,16.4349 L28.5372,9.3279 Z" id="Fill-45" fill="#0BAA8E"></path>
                <path d="M35.245,13.9433 C35.876,14.2223 36.652,14.4263 37.282,14.4263 C37.575,14.4263 37.649,14.3393 37.649,14.2373 C37.649,14.1483 37.56,14.1203 37.312,14.0313 C35.934,13.5623 34.806,13.2103 34.806,11.6133 C34.806,10.2363 35.846,9.1673 37.956,9.1673 C38.967,9.1673 39.788,9.2983 40.565,9.5613 L40.081,11.6723 C39.436,11.4813 38.762,11.3203 38.147,11.3203 C37.912,11.3203 37.81,11.3933 37.81,11.4813 C37.81,11.5843 37.898,11.6573 38.455,11.8043 C39.934,12.2003 40.668,12.6533 40.668,14.0603 C40.668,15.5693 39.583,16.5813 37.473,16.5813 C36.374,16.5813 35.318,16.3763 34.557,15.9213 L35.245,13.9433 Z" id="Fill-47" fill="#0BAA8E"></path>
                <path d="M46.0724,12.8742 C46.0724,12.0232 45.8674,11.4232 45.2954,11.4232 C44.7684,11.4232 44.5184,11.9952 44.5184,12.9472 C44.5184,13.7682 44.7824,14.2952 45.3244,14.2952 C45.8234,14.2952 46.0724,13.7822 46.0724,12.8742 L46.0724,12.8742 Z M45.0464,5.2832 L48.1384,5.6352 L45.3244,8.5512 L43.6694,8.3602 L45.0464,5.2832 Z M45.2954,9.1672 C47.8304,9.1672 49.2814,10.4712 49.2814,12.8582 C49.2814,15.1892 47.7434,16.5812 45.3104,16.5812 C42.7894,16.5812 41.3094,15.2332 41.3094,12.9772 C41.3094,10.5442 42.9064,9.1672 45.2954,9.1672 L45.2954,9.1672 Z" id="Fill-49" fill="#0BAA8E"></path>
                <path d="M50.371,9.3279 L53.096,9.1509 L53.287,10.3829 C53.873,9.6789 54.855,9.1669 55.866,9.1669 C57.273,9.1669 58.079,9.9429 58.079,11.6569 L58.079,16.4349 L55.001,16.4349 L55.001,12.2439 C55.001,11.7309 54.811,11.4229 54.474,11.4229 C54.078,11.4229 53.683,11.7159 53.433,11.9949 L53.433,16.4349 L50.371,16.4349 L50.371,9.3279 Z" id="Fill-51" fill="#0BAA8E"></path>
                <path d="M59.4622,9.4007 L62.5392,9.2257 L62.5392,13.5187 C62.5392,14.0317 62.7302,14.3397 63.0672,14.3397 C63.4632,14.3397 63.8582,14.0457 64.1082,13.7677 L64.1082,9.3277 L67.1702,9.3277 L67.1702,16.4347 L64.3862,16.5817 L64.2542,15.3797 C63.6682,16.0827 62.6862,16.5957 61.6752,16.5957 C60.2682,16.5957 59.4622,15.8187 59.4622,14.1047 L59.4622,9.4007 Z" id="Fill-53" fill="#0BAA8E"></path>
                <path d="M68.6501,9.3279 L71.3751,9.1509 L71.5951,10.5729 C72.0201,9.9429 72.8261,9.1669 74.1161,9.1669 C74.2621,9.1669 74.4091,9.1809 74.4971,9.1959 L74.3501,11.9809 L74.2181,11.9809 C73.3391,11.9809 72.4021,12.0389 71.7121,12.3169 L71.7121,16.4349 L68.6501,16.4349 L68.6501,9.3279 Z" id="Fill-55" fill="#0BAA8E"></path>
                <path d="M79.1177,12.0676 C79.1177,11.5986 79.0447,11.0126 78.6487,11.0126 C78.2387,11.0126 78.1367,11.6286 78.1367,12.0676 L79.1177,12.0676 Z M81.9607,15.9516 C81.1697,16.3616 80.0997,16.5816 78.8247,16.5816 C76.6267,16.5816 74.9267,15.4086 74.9267,13.1076 C74.9267,10.8516 76.1427,9.1816 78.6637,9.1816 C81.1107,9.1816 82.1077,10.7936 82.1077,12.7416 L82.1077,13.6656 L78.0917,13.6656 C78.1947,14.1346 78.6637,14.4266 79.3377,14.4266 C80.0557,14.4266 80.7737,14.2806 81.3747,14.0606 L81.9607,15.9516 Z" id="Fill-57" fill="#0BAA8E"></path>
                <path d="M83.2344,9.4007 L86.2964,9.2257 L86.2964,16.4347 L83.2344,16.4347 L83.2344,9.4007 Z M84.8454,5.3267 C85.6514,5.3267 86.4144,5.9857 86.4144,6.8647 C86.4144,7.9057 85.7254,8.5797 84.7144,8.5797 C83.8644,8.5797 83.1164,7.9357 83.1164,7.0417 C83.1164,6.0157 83.8204,5.3267 84.8454,5.3267 L84.8454,5.3267 Z" id="Fill-59" fill="#0BAA8E"></path>
                <path d="M87.7508,5.5322 L90.8128,5.3412 L90.8128,8.9172 L90.7258,11.6872 L92.3958,9.3282 L95.9718,9.3282 L93.5688,12.3472 L96.3528,16.4352 L92.8938,16.5512 L91.3698,14.1482 L90.8128,14.5592 L90.8128,16.4352 L87.7508,16.4352 L87.7508,5.5322 Z" id="Fill-61" fill="#0BAA8E"></path>
                <path d="M96.9452,9.3279 L99.6702,9.1509 L99.8612,10.3829 C100.4472,9.6789 101.4292,9.1669 102.4402,9.1669 C103.8472,9.1669 104.6532,9.9429 104.6532,11.6569 L104.6532,16.4349 L101.5752,16.4349 L101.5752,12.2439 C101.5752,11.7309 101.3852,11.4229 101.0482,11.4229 C100.6522,11.4229 100.2572,11.7159 100.0072,11.9949 L100.0072,16.4349 L96.9452,16.4349 L96.9452,9.3279 Z" id="Fill-63" fill="#0BAA8E"></path>
                <path d="M106.0729,9.4007 L109.1349,9.2257 L109.1349,16.4347 L106.0729,16.4347 L106.0729,9.4007 Z M107.6839,5.3267 C108.4899,5.3267 109.2529,5.9857 109.2529,6.8647 C109.2529,7.9057 108.5639,8.5797 107.5529,8.5797 C106.7029,8.5797 105.9549,7.9357 105.9549,7.0417 C105.9549,6.0157 106.6589,5.3267 107.6839,5.3267 L107.6839,5.3267 Z" id="Fill-65" fill="#0BAA8E"></path>
                <path d="M110.5886,9.3279 L113.3136,9.1509 L113.5336,10.5729 C113.9586,9.9429 114.7646,9.1669 116.0546,9.1669 C116.2006,9.1669 116.3476,9.1809 116.4356,9.1959 L116.2886,11.9809 L116.1566,11.9809 C115.2776,11.9809 114.3406,12.0389 113.6506,12.3169 L113.6506,16.4349 L110.5886,16.4349 L110.5886,9.3279 Z" id="Fill-67" fill="#0BAA8E"></path>
            </g>
        </g>
    </g>
</svg>