<?xml version="1.0" encoding="UTF-8" standalone="no"?>
<svg width="274px" height="147px" viewBox="0 0 274 147" version="1.1" xmlns="http://www.w3.org/2000/svg" xmlns:xlink="http://www.w3.org/1999/xlink" xmlns:sketch="http://www.bohemiancoding.com/sketch/ns">
    <!-- Generator: Sketch 3.5.2 (25235) - http://www.bohemiancoding.com/sketch -->
    <title>Group</title>
    <desc>Created with Sketch.</desc>
    <defs></defs>
    <g id="Page-1" stroke="none" stroke-width="1" fill="none" fill-rule="evenodd" sketch:type="MSPage">
        <g id="iPhone-6-Copy-9" sketch:type="MSArtboardGroup" transform="translate(-51.000000, -117.000000)">
            <g id="Group" sketch:type="MSLayerGroup" transform="translate(51.000000, 117.000000)">
                <path d="M147.707092,30.14415 L152.280564,30.14415 L151.63917,20.6712 L150.417148,20.6712 L147.707092,30.14415 Z M58.8126948,41.70015 L64.9322611,31.104 L83.7622153,31.104 L83.2693553,32.24205 C82.6347136,33.7068 83.4205891,35.51445 84.8789147,35.51445 L87.9994614,35.51445 C89.484793,35.51445 90.1896504,34.47495 90.5758366,33.44355 L91.8113625,30.14415 C92.4000939,28.57545 91.831617,27.1539 90.3692405,27.1539 L74.2547426,27.1539 C70.3456198,27.1539 68.8994469,24.23115 71.3191872,20.04345 L80.213623,4.6413 C82.2269226,1.15425 84.781693,0 89.4091761,0 L142.796046,0 L138.475081,11.1753 L129.588747,11.1753 L126.030703,47.5119 L144.397503,0 L161.674611,0 L172.302834,49.8987 L153.620063,49.8987 L152.977319,40.42575 L144.764785,40.42575 L142.05473,49.8987 L106.610667,49.8987 L115.370072,11.1753 L95.661072,11.21445 C95.0439842,11.2158 92.3231268,11.4318 91.7668025,12.6198 C91.2118286,13.80915 92.5216211,15.45345 93.6086138,15.45345 L107.551827,15.45345 C111.50821,15.45345 112.209017,17.3232 111.216545,21.43395 L105.603342,44.68905 C104.56496,48.99285 100.233193,49.8987 96.6494927,49.8987 L62.9581204,49.8987 C57.8485796,49.8987 55.5179592,47.40525 58.8126948,41.70015 L58.8126948,41.70015 Z" id="Fill-1" fill="#0BAA8E" sketch:type="MSShapeGroup"></path>
                <path d="M179.405821,11.17665 L180.92491,15.4548 L185.155405,15.4548 C188.146322,15.4548 186.07631,11.17665 184.426242,11.17665 L179.405821,11.17665 Z M162.608071,0 L173.899292,49.90005 L193.15189,49.90005 L186.139774,30.1455 L186.817626,30.1455 L201.776266,49.90005 L222.998954,49.92165 L204.999435,30.1455 C204.999435,30.1455 203.480346,28.4769 205.708344,27.86535 C207.934991,27.2538 209.136759,24.91965 207.636574,22.2129 L197.76317,4.40505 C196.041535,1.30005 193.647451,0 190.224436,0 L162.608071,0 Z" id="Fill-3" fill="#0BAA8E" sketch:type="MSShapeGroup"></path>
                <path d="M52.4612778,51.3 L16.7755102,113.0949 L42.2732531,113.0949 L64.6261439,84.3912 L66.3356256,84.3912 L58.74153,113.0949 L80.9080792,113.0949 L118.987931,51.3 L101.91607,51.3 L83.2022414,79.97535 L90.8354957,51.3 L78.0386885,51.3 L51.8819985,81.4968 L67.8884723,51.3 L52.4612778,51.3 Z" id="Fill-5" fill="#0BAA8E" sketch:type="MSShapeGroup"></path>
                <path d="M118.169649,88.90965 L123.5506,88.90965 L124.513365,78.78195 L123.618115,78.78195 L118.169649,88.90965 Z M120.662305,51.3 L141.875542,51.3 L142.726231,113.0949 L121.253737,113.0949 L122.350182,101.54835 L111.370881,101.54835 L105.159494,113.0949 L82.9402829,113.0949 L120.662305,51.3 Z" id="Fill-8" fill="#0BAA8E" sketch:type="MSShapeGroup"></path>
                <path d="M160.820271,65.5101 L161.593994,71.6877 L167.326024,71.6877 C169.451398,71.6877 169.094919,65.5101 165.944665,65.5101 L160.820271,65.5101 Z M143.70385,51.3 L145.177029,113.0949 L166.783203,113.0949 L163.751776,88.90965 L164.507945,88.90965 L177.127862,113.0949 L201.317163,113.0949 L184.770569,90.0936 C183.929331,88.92585 182.234703,86.6052 184.993369,86.2245 C187.750684,85.8438 190.607922,83.6136 188.567617,76.2021 L183.447273,57.60315 C182.946311,55.7847 180.533323,51.3 175.576366,51.3 L143.70385,51.3 Z" id="Fill-10" fill="#0BAA8E" sketch:type="MSShapeGroup"></path>
                <path d="M190.618429,51.3 L217.832405,51.3 C220.984009,51.3 224.127511,52.05195 225.568282,54.6507 L233.694397,69.30765 L212.483861,69.30765 L211.58186,67.2057 C211.187571,66.28635 210.103279,65.5101 209.102706,65.5101 L206.96923,65.5101 C205.685093,65.5101 204.951879,66.20535 205.469045,67.52295 L206.421007,69.95565 C206.888212,71.14635 208.257417,71.6877 209.537503,71.6877 L227.470857,71.6877 C229.658345,71.6877 235.079806,71.80515 236.84465,74.98845 L253.161693,104.41845 C256.029733,109.593 252.702591,113.0949 248.789417,113.0949 L206.496624,113.0949 C202.098692,113.0949 199.49126,109.9035 198.367809,105.94935 L193.526978,88.90965 L213.846315,88.90965 L215.5693,93.30525 C215.97304,94.338 216.919601,95.5449 218.029549,95.5449 L220.596472,95.5449 C222.053448,95.5449 223.055371,93.9465 222.516601,92.68965 L220.893539,88.90965 C220.306157,87.5394 218.808673,86.2245 217.31794,86.2245 L200.61066,86.2245 C195.341784,86.2245 192.450788,85.1202 190.649486,78.78195 L184.502914,57.14685 C183.09725,52.19505 187.071187,51.3 190.618429,51.3" id="Fill-12" fill="#0BAA8E" sketch:type="MSShapeGroup"></path>
                <rect id="Rectangle-25-Copy-3" fill="#0BAA8E" sketch:type="MSShapeGroup" x="0" y="109.256" width="273.505942" height="37.744" rx="26"></rect>
                <path d="M53.000275,126.702928 C53.000275,128.528437 52.4031548,129.918874 51.2088965,130.87428 C50.0146382,131.829687 48.2488685,132.307383 45.9115344,132.307383 L42.9173732,132.307383 L42.9173732,137.681519 L36.9546418,137.681519 L36.9546418,120.791379 L45.9115344,120.791379 C50.6373851,120.791379 53.000275,122.761875 53.000275,126.702928 L53.000275,126.702928 Z M46.5385169,127.828937 C46.8712031,127.573024 47.0375437,127.172101 47.0375437,126.626154 C47.0375437,126.080208 46.8712031,125.679284 46.5385169,125.423372 C46.2058306,125.167459 45.6726876,125.039505 44.9390718,125.039505 L42.9173732,125.039505 L42.9173732,128.212804 L44.9390718,128.212804 C45.6726876,128.212804 46.2058306,128.084849 46.5385169,127.828937 L46.5385169,127.828937 Z M67.9422911,132.409748 L59.8043145,132.409748 C59.8896187,133.040999 60.0687547,133.467513 60.341728,133.689304 C60.6147014,133.911095 61.0241552,134.021988 61.5701019,134.021988 C62.4060827,134.021988 62.9179,133.655186 63.1055692,132.92157 L67.8399267,134.201126 C67.5498925,135.429506 66.8376134,136.359308 65.703068,136.990558 C64.5685226,137.621809 63.190881,137.93743 61.5701019,137.93743 C59.1474636,137.93743 57.3091864,137.365901 56.0552152,136.222825 C54.801244,135.079749 54.1742678,133.433403 54.1742678,131.283738 C54.1742678,129.168195 54.7927137,127.53038 56.0296241,126.370243 C57.2665345,125.210106 59.0109785,124.630047 61.2630084,124.630047 C63.4638559,124.630047 65.1485879,125.193046 66.3172549,126.319061 C67.485922,127.445076 68.0702468,128.963467 68.0702468,130.87428 C68.0702468,131.522592 68.0275953,132.034409 67.9422911,132.409748 L67.9422911,132.409748 Z M60.2649547,128.903764 C60.026103,129.159677 59.8725578,129.603252 59.8043145,130.234502 L62.5681556,130.234502 C62.5169731,129.654434 62.3932839,129.223654 62.1970844,128.942151 C62.0008848,128.660647 61.6980595,128.519897 61.2885995,128.519897 C60.8450179,128.519897 60.5038063,128.647852 60.2649547,128.903764 L60.2649547,128.903764 Z M80.5299241,124.93714 L80.0436928,129.748271 C79.8901453,129.628845 79.6683578,129.530747 79.3783236,129.453973 C79.0882894,129.377199 78.7726688,129.338813 78.4314521,129.338813 C77.6466538,129.338813 77.0282079,129.526479 76.5760958,129.901818 C76.1239837,130.277156 75.8979311,130.823095 75.8979311,131.53965 L75.8979311,137.681519 L70.0119731,137.681519 L70.0119731,124.885958 L75.3093353,124.885958 L75.4372909,128.084848 C76.0514809,125.781636 77.3054333,124.630047 79.1991857,124.630047 C79.7963149,124.630047 80.2398899,124.73241 80.5299241,124.93714 L80.5299241,124.93714 Z M83.7256154,137.489585 C82.6337221,137.191021 81.7124509,136.709059 80.9617743,136.043687 L83.5464775,132.92157 C84.0412417,133.365152 84.612771,133.723424 85.2610827,133.996397 C85.9093943,134.269371 86.5918174,134.405855 87.3083724,134.405855 C87.6325282,134.405855 87.9012323,134.375999 88.1144927,134.316286 C88.3277531,134.256573 88.4343817,134.158475 88.4343817,134.021988 C88.4343817,133.868441 88.2893668,133.727691 87.9993327,133.599735 C87.7092985,133.471779 87.2145418,133.339559 86.5150476,133.203072 C84.6724777,132.844795 83.3289572,132.328712 82.484446,131.65481 C81.6399348,130.980907 81.2176855,130.123613 81.2176855,129.082902 C81.2176855,128.332225 81.469329,127.619946 81.9726236,126.946043 C82.4759181,126.27214 83.2479092,125.717672 84.2886201,125.28262 C85.3293309,124.847569 86.6174044,124.630047 88.1528794,124.630047 C89.6542327,124.630047 90.9124503,124.809183 91.9275698,125.16746 C92.9426894,125.525738 93.7402714,125.969313 94.3203397,126.498199 L91.9147743,129.338813 C91.129976,128.554015 89.9698567,128.161622 88.4343817,128.161622 C87.9737393,128.161622 87.641058,128.204273 87.436328,128.289577 C87.231598,128.374881 87.1292345,128.485775 87.1292345,128.622262 C87.1292345,128.826992 87.6495821,128.997597 88.690293,129.134084 C90.6522888,129.407057 92.0853772,129.880488 92.9896014,130.554391 C93.8938255,131.228294 94.3459308,132.153831 94.3459308,133.331028 C94.3459308,134.661773 93.7999923,135.76218 92.708099,136.632283 C91.6162057,137.502385 89.9613297,137.93743 87.7434215,137.93743 C86.156764,137.93743 84.8175087,137.78815 83.7256154,137.489585 L83.7256154,137.489585 Z M107.778071,126.370243 C109.023512,127.53038 109.646223,129.168195 109.646223,131.283738 C109.646223,133.399282 109.023512,135.037097 107.778071,136.197234 C106.53263,137.35737 104.77539,137.93743 102.5063,137.93743 C100.237209,137.93743 98.4799695,137.35737 97.2345287,136.197234 C95.9890879,135.037097 95.3663768,133.399282 95.3663768,131.283738 C95.3663768,129.168195 95.9890879,127.53038 97.2345287,126.370243 C98.4799695,125.210106 100.237209,124.630047 102.5063,124.630047 C104.77539,124.630047 106.53263,125.210106 107.778071,126.370243 L107.778071,126.370243 Z M101.738566,128.826991 C101.567958,128.980538 101.448534,129.244977 101.38029,129.620315 C101.312047,129.995654 101.277926,130.550123 101.277926,131.283738 C101.277926,132.017354 101.312047,132.571823 101.38029,132.947161 C101.448534,133.3225 101.567958,133.586939 101.738566,133.740486 C101.909174,133.894033 102.165083,133.970806 102.5063,133.970806 C102.847516,133.970806 103.103425,133.894033 103.274033,133.740486 C103.444642,133.586939 103.564066,133.3225 103.632309,132.947161 C103.700552,132.571823 103.734674,132.017354 103.734674,131.283738 C103.734674,130.550123 103.700552,129.995654 103.632309,129.620315 C103.564066,129.244977 103.444642,128.980538 103.274033,128.826991 C103.103425,128.673443 102.847516,128.596671 102.5063,128.596671 C102.165083,128.596671 101.909174,128.673443 101.738566,128.826991 L101.738566,128.826991 Z M106.85679,119 L104.220905,123.529629 L100.075143,123.529629 L101.61061,119 L106.85679,119 Z M124.421896,125.756056 C125.129921,126.506733 125.483928,127.564489 125.483928,128.929355 L125.483928,137.681519 L119.59797,137.681519 L119.59797,130.464822 C119.59797,129.901815 119.529728,129.513687 119.393241,129.300426 C119.256754,129.087166 119.026437,128.980537 118.702281,128.980537 C118.27576,128.980537 117.964404,129.142613 117.768205,129.466769 C117.572005,129.790925 117.473907,130.294212 117.473907,130.976645 L117.473907,137.681519 L111.587949,137.681519 L111.587949,124.885958 L116.885311,124.885958 L117.013267,127.67539 C117.388605,126.685862 117.951604,125.930931 118.702281,125.410576 C119.452957,124.890221 120.374229,124.630047 121.466122,124.630047 C122.728624,124.630047 123.713872,125.005379 124.421896,125.756056 L124.421896,125.756056 Z M141.756682,124.885958 L141.756682,137.681519 L136.45932,137.681519 L136.331365,134.96886 C135.956026,135.958388 135.405823,136.700523 134.680737,137.195287 C133.955652,137.690052 133.064237,137.93743 132.006465,137.93743 C130.641598,137.93743 129.609434,137.583423 128.909939,136.875398 C128.210445,136.167374 127.860703,135.054171 127.860703,133.535757 L127.860703,124.885958 L133.746661,124.885958 L133.746661,132.077063 C133.746661,132.640071 133.819169,133.032464 133.964186,133.254255 C134.109203,133.476046 134.352316,133.586939 134.693533,133.586939 C135.478331,133.586939 135.870724,132.913046 135.870724,131.565241 L135.870724,124.885958 L141.756682,124.885958 Z M154.702591,124.93714 L154.21636,129.748271 C154.062812,129.628845 153.841025,129.530747 153.550991,129.453973 C153.260956,129.377199 152.945336,129.338813 152.604119,129.338813 C151.819321,129.338813 151.200875,129.526479 150.748763,129.901818 C150.296651,130.277156 150.070598,130.823095 150.070598,131.53965 L150.070598,137.681519 L144.18464,137.681519 L144.18464,124.885958 L149.482002,124.885958 L149.609958,128.084848 C150.224148,125.781636 151.4781,124.630047 153.371853,124.630047 C153.968982,124.630047 154.412557,124.73241 154.702591,124.93714 L154.702591,124.93714 Z M169.26074,132.409748 L161.122764,132.409748 C161.208068,133.040999 161.387204,133.467513 161.660177,133.689304 C161.933151,133.911095 162.342604,134.021988 162.888551,134.021988 C163.724532,134.021988 164.236349,133.655186 164.424018,132.92157 L169.158376,134.201126 C168.868342,135.429506 168.156063,136.359308 167.021517,136.990558 C165.886972,137.621809 164.50933,137.93743 162.888551,137.93743 C160.465913,137.93743 158.627636,137.365901 157.373664,136.222825 C156.119693,135.079749 155.492717,133.433403 155.492717,131.283738 C155.492717,129.168195 156.111163,127.53038 157.348073,126.370243 C158.584984,125.210106 160.329428,124.630047 162.581458,124.630047 C164.782305,124.630047 166.467037,125.193046 167.635704,126.319061 C168.804371,127.445076 169.388696,128.963467 169.388696,130.87428 C169.388696,131.522592 169.346044,132.034409 169.26074,132.409748 L169.26074,132.409748 Z M161.583404,128.903764 C161.344552,129.159677 161.191007,129.603252 161.122764,130.234502 L163.886605,130.234502 C163.835422,129.654434 163.711733,129.223654 163.515534,128.942151 C163.319334,128.660647 163.016509,128.519897 162.607049,128.519897 C162.163467,128.519897 161.822255,128.647852 161.583404,128.903764 L161.583404,128.903764 Z M171.803858,123.504037 C171.317624,123.128699 171.074511,122.497458 171.074511,121.610294 C171.074511,120.723131 171.317624,120.09189 171.803858,119.716551 C172.290092,119.341213 173.113265,119.153547 174.273401,119.153547 C175.433538,119.153547 176.256711,119.341213 176.742944,119.716551 C177.229178,120.09189 177.472291,120.723131 177.472291,121.610294 C177.472291,122.497458 177.229178,123.128699 176.742944,123.504037 C176.256711,123.879376 175.433538,124.067042 174.273401,124.067042 C173.113265,124.067042 172.290092,123.879376 171.803858,123.504037 L171.803858,123.504037 Z M177.21638,137.681519 L171.330422,137.681519 L171.330422,124.885958 L177.21638,124.885958 L177.21638,137.681519 Z M187.168128,133.203072 L185.530296,135.19918 L185.530296,137.681519 L179.644338,137.681519 L179.644338,119.767734 L185.530296,119.767734 L185.530296,129.415586 L189.2666,124.885958 L195.587607,124.885958 L191.032387,129.901818 L195.869109,137.681519 L189.471329,137.681519 L187.168128,133.203072 Z M209.749093,125.756056 C210.457118,126.506733 210.811125,127.564489 210.811125,128.929355 L210.811125,137.681519 L204.925167,137.681519 L204.925167,130.464822 C204.925167,129.901815 204.856925,129.513687 204.720438,129.300426 C204.583951,129.087166 204.353634,128.980537 204.029478,128.980537 C203.602957,128.980537 203.291601,129.142613 203.095402,129.466769 C202.899202,129.790925 202.801104,130.294212 202.801104,130.976645 L202.801104,137.681519 L196.915146,137.681519 L196.915146,124.885958 L202.212508,124.885958 L202.340464,127.67539 C202.715802,126.685862 203.278801,125.930931 204.029478,125.410576 C204.780154,124.890221 205.701426,124.630047 206.793319,124.630047 C208.055821,124.630047 209.041069,125.005379 209.749093,125.756056 L209.749093,125.756056 Z M213.686927,123.504037 C213.200694,123.128699 212.95758,122.497458 212.95758,121.610294 C212.95758,120.723131 213.200694,120.09189 213.686927,119.716551 C214.173161,119.341213 214.996334,119.153547 216.156471,119.153547 C217.316607,119.153547 218.13978,119.341213 218.626014,119.716551 C219.112248,120.09189 219.355361,120.723131 219.355361,121.610294 C219.355361,122.497458 219.112248,123.128699 218.626014,123.504037 C218.13978,123.879376 217.316607,124.067042 216.156471,124.067042 C214.996334,124.067042 214.173161,123.879376 213.686927,123.504037 L213.686927,123.504037 Z M219.09945,137.681519 L213.213492,137.681519 L213.213492,124.885958 L219.09945,124.885958 L219.09945,137.681519 Z M232.045358,124.93714 L231.559127,129.748271 C231.405579,129.628845 231.183792,129.530747 230.893758,129.453973 C230.603724,129.377199 230.288103,129.338813 229.946886,129.338813 C229.162088,129.338813 228.543642,129.526479 228.09153,129.901818 C227.639418,130.277156 227.413365,130.823095 227.413365,131.53965 L227.413365,137.681519 L221.527407,137.681519 L221.527407,124.885958 L226.824769,124.885958 L226.952725,128.084848 C227.566915,125.781636 228.820867,124.630047 230.71462,124.630047 C231.311749,124.630047 231.755324,124.73241 232.045358,124.93714 L232.045358,124.93714 Z" id="Persónureiknir" fill="#FFFFFF" sketch:type="MSShapeGroup"></path>
            </g>
        </g>
    </g>
</svg>